# MagicaVoxel @ Ephtracy

# group
o 

# material
mtllib table.mtl
usemtl palette

# normals
vn -1 0 0
vn 1 0 0
vn 0 0 1
vn 0 0 -1
vn 0 -1 0
vn 0 1 0

# texcoords
vt 0.00585938 0.5
vt 0.244141 0.5
vt 0.248047 0.5

# verts
v -1 1.1 0.8
v -1 1.1 -0.9
v -1 1.2 0.8
v -1 1.2 -0.9
v -0.9 0 0.8
v -0.9 0 0.5
v -0.9 0 -0.6
v -0.9 0 -0.9
v -0.9 0.9 0.5
v -0.9 0.9 -0.6
v -0.9 1 0.5
v -0.9 1 -0.6
v -0.9 1.1 0.9
v -0.9 1.1 0.8
v -0.9 1.1 0.5
v -0.9 1.1 -0.6
v -0.9 1.1 -0.9
v -0.9 1.1 -1
v -0.9 1.2 0.9
v -0.9 1.2 0.8
v -0.9 1.2 -0.9
v -0.9 1.2 -1
v -0.7 0.7 0.5
v -0.7 0.7 -0.6
v -0.7 0.8 0.5
v -0.7 0.8 -0.6
v 0.5 0 0.8
v 0.5 0 0.5
v 0.5 0 -0.6
v 0.5 0 -0.9
v 0.5 0.7 0.7
v 0.5 0.7 0.6
v 0.5 0.7 -0.7
v 0.5 0.7 -0.8
v 0.5 0.8 0.7
v 0.5 0.8 0.6
v 0.5 0.8 -0.7
v 0.5 0.8 -0.8
v 0.5 0.9 0.8
v 0.5 0.9 0.7
v 0.5 0.9 -0.8
v 0.5 0.9 -0.9
v 0.5 1 0.8
v 0.5 1 0.7
v 0.5 1 -0.8
v 0.5 1 -0.9
v 0.5 1.1 0.8
v 0.5 1.1 0.5
v 0.5 1.1 -0.6
v 0.5 1.1 -0.9
v 0.6 0.7 0.5
v 0.6 0.7 -0.6
v 0.6 0.8 0.5
v 0.6 0.8 -0.6
v 0.8 0.9 0.5
v 0.8 0.9 -0.6
v 0.8 1 0.5
v 0.8 1 -0.6
v -0.8 0.9 0.5
v -0.8 0.9 -0.6
v -0.8 1 0.5
v -0.8 1 -0.6
v -0.6 0.7 0.5
v -0.6 0.7 -0.6
v -0.6 0.8 0.5
v -0.6 0.8 -0.6
v -0.5 0 0.8
v -0.5 0 0.5
v -0.5 0 -0.6
v -0.5 0 -0.9
v -0.5 0.7 0.7
v -0.5 0.7 0.6
v -0.5 0.7 -0.7
v -0.5 0.7 -0.8
v -0.5 0.8 0.7
v -0.5 0.8 0.6
v -0.5 0.8 -0.7
v -0.5 0.8 -0.8
v -0.5 0.9 0.8
v -0.5 0.9 0.7
v -0.5 0.9 -0.8
v -0.5 0.9 -0.9
v -0.5 1 0.8
v -0.5 1 0.7
v -0.5 1 -0.8
v -0.5 1 -0.9
v -0.5 1.1 0.8
v -0.5 1.1 0.5
v -0.5 1.1 -0.6
v -0.5 1.1 -0.9
v 0.7 0.7 0.5
v 0.7 0.7 -0.6
v 0.7 0.8 0.5
v 0.7 0.8 -0.6
v 0.9 0 0.8
v 0.9 0 0.5
v 0.9 0 -0.6
v 0.9 0 -0.9
v 0.9 0.9 0.5
v 0.9 0.9 -0.6
v 0.9 1 0.5
v 0.9 1 -0.6
v 0.9 1.1 0.9
v 0.9 1.1 0.8
v 0.9 1.1 0.5
v 0.9 1.1 -0.6
v 0.9 1.1 -0.9
v 0.9 1.1 -1
v 0.9 1.2 0.9
v 0.9 1.2 0.8
v 0.9 1.2 -0.9
v 0.9 1.2 -1
v 1 1.1 0.8
v 1 1.1 -0.9
v 1 1.2 0.8
v 1 1.2 -0.9
v -0.9 1.1 0.9
v -0.9 1.2 0.9
v 0.9 1.1 0.9
v 0.9 1.2 0.9
v -1 1.1 0.8
v -1 1.2 0.8
v -0.9 0 0.8
v -0.9 1.1 0.8
v -0.9 1.2 0.8
v -0.5 0 0.8
v -0.5 0.9 0.8
v -0.5 1 0.8
v -0.5 1.1 0.8
v 0.5 0 0.8
v 0.5 0.9 0.8
v 0.5 1 0.8
v 0.5 1.1 0.8
v 0.9 0 0.8
v 0.9 1.1 0.8
v 0.9 1.2 0.8
v 1 1.1 0.8
v 1 1.2 0.8
v -0.5 0.7 0.7
v -0.5 0.8 0.7
v 0.5 0.7 0.7
v 0.5 0.8 0.7
v -0.9 0 -0.6
v -0.9 0.9 -0.6
v -0.9 1 -0.6
v -0.9 1.1 -0.6
v -0.8 0.9 -0.6
v -0.8 1 -0.6
v -0.7 0.7 -0.6
v -0.7 0.8 -0.6
v -0.6 0.7 -0.6
v -0.6 0.8 -0.6
v -0.6 1.1 -0.6
v -0.5 0 -0.6
v -0.5 1.1 -0.6
v 0.5 0 -0.6
v 0.5 1.1 -0.6
v 0.6 0.7 -0.6
v 0.6 0.8 -0.6
v 0.7 0.7 -0.6
v 0.7 0.8 -0.6
v 0.7 1.1 -0.6
v 0.8 0.9 -0.6
v 0.8 1 -0.6
v 0.9 0 -0.6
v 0.9 0.9 -0.6
v 0.9 1 -0.6
v 0.9 1.1 -0.6
v -0.5 0.7 -0.7
v -0.5 0.8 -0.7
v 0.5 0.7 -0.7
v 0.5 0.8 -0.7
v -0.5 0.9 -0.8
v -0.5 1 -0.8
v 0.5 0.9 -0.8
v 0.5 1 -0.8
v -0.5 0.9 0.7
v -0.5 1 0.7
v 0.5 0.9 0.7
v 0.5 1 0.7
v -0.5 0.7 0.6
v -0.5 0.8 0.6
v 0.5 0.7 0.6
v 0.5 0.8 0.6
v -0.9 0 0.5
v -0.9 0.9 0.5
v -0.9 1 0.5
v -0.9 1.1 0.5
v -0.8 0.9 0.5
v -0.8 1 0.5
v -0.7 0.7 0.5
v -0.7 0.8 0.5
v -0.6 0.7 0.5
v -0.6 0.8 0.5
v -0.6 1.1 0.5
v -0.5 0 0.5
v -0.5 1.1 0.5
v 0.5 0 0.5
v 0.5 1.1 0.5
v 0.6 0.7 0.5
v 0.6 0.8 0.5
v 0.7 0.7 0.5
v 0.7 0.8 0.5
v 0.7 1.1 0.5
v 0.8 0.9 0.5
v 0.8 1 0.5
v 0.9 0 0.5
v 0.9 0.9 0.5
v 0.9 1 0.5
v 0.9 1.1 0.5
v -0.5 0.7 -0.8
v -0.5 0.8 -0.8
v 0.5 0.7 -0.8
v 0.5 0.8 -0.8
v -1 1.1 -0.9
v -1 1.2 -0.9
v -0.9 0 -0.9
v -0.9 1.1 -0.9
v -0.9 1.2 -0.9
v -0.5 0 -0.9
v -0.5 0.9 -0.9
v -0.5 1 -0.9
v -0.5 1.1 -0.9
v 0.5 0 -0.9
v 0.5 0.9 -0.9
v 0.5 1 -0.9
v 0.5 1.1 -0.9
v 0.9 0 -0.9
v 0.9 1.1 -0.9
v 0.9 1.2 -0.9
v 1 1.1 -0.9
v 1 1.2 -0.9
v -0.9 1.1 -1
v -0.9 1.2 -1
v 0.9 1.1 -1
v 0.9 1.2 -1
v -0.9 0 0.8
v -0.5 0 0.8
v 0.5 0 0.8
v 0.9 0 0.8
v -0.9 0 0.5
v -0.5 0 0.5
v 0.5 0 0.5
v 0.9 0 0.5
v -0.9 0 -0.6
v -0.5 0 -0.6
v 0.5 0 -0.6
v 0.9 0 -0.6
v -0.9 0 -0.9
v -0.5 0 -0.9
v 0.5 0 -0.9
v 0.9 0 -0.9
v -0.5 0.7 0.7
v 0.5 0.7 0.7
v -0.5 0.7 0.6
v 0.5 0.7 0.6
v -0.7 0.7 0.5
v -0.6 0.7 0.5
v 0.6 0.7 0.5
v 0.7 0.7 0.5
v -0.7 0.7 -0.6
v -0.6 0.7 -0.6
v 0.6 0.7 -0.6
v 0.7 0.7 -0.6
v -0.5 0.7 -0.7
v 0.5 0.7 -0.7
v -0.5 0.7 -0.8
v 0.5 0.7 -0.8
v -0.5 0.9 0.8
v 0.5 0.9 0.8
v -0.5 0.9 0.7
v 0.5 0.9 0.7
v -0.9 0.9 0.5
v -0.8 0.9 0.5
v 0.8 0.9 0.5
v 0.9 0.9 0.5
v -0.9 0.9 -0.6
v -0.8 0.9 -0.6
v 0.8 0.9 -0.6
v 0.9 0.9 -0.6
v -0.5 0.9 -0.8
v 0.5 0.9 -0.8
v -0.5 0.9 -0.9
v 0.5 0.9 -0.9
v -0.9 1.1 0.9
v 0.9 1.1 0.9
v -1 1.1 0.8
v -0.9 1.1 0.8
v -0.5 1.1 0.8
v -0.4 1.1 0.8
v -0.1 1.1 0.8
v 0.1 1.1 0.8
v 0.5 1.1 0.8
v 0.9 1.1 0.8
v 1 1.1 0.8
v -0.9 1.1 0.5
v -0.6 1.1 0.5
v -0.5 1.1 0.5
v 0.5 1.1 0.5
v 0.7 1.1 0.5
v 0.9 1.1 0.5
v -0.9 1.1 -0.6
v -0.6 1.1 -0.6
v -0.5 1.1 -0.6
v 0.5 1.1 -0.6
v 0.7 1.1 -0.6
v 0.9 1.1 -0.6
v -1 1.1 -0.9
v -0.9 1.1 -0.9
v -0.5 1.1 -0.9
v -0.4 1.1 -0.9
v -0.1 1.1 -0.9
v 0.1 1.1 -0.9
v 0.5 1.1 -0.9
v 0.9 1.1 -0.9
v 1 1.1 -0.9
v -0.9 1.1 -1
v 0.9 1.1 -1
v -0.5 0.8 0.7
v 0.5 0.8 0.7
v -0.5 0.8 0.6
v 0.5 0.8 0.6
v -0.7 0.8 0.5
v -0.6 0.8 0.5
v 0.6 0.8 0.5
v 0.7 0.8 0.5
v -0.7 0.8 -0.6
v -0.6 0.8 -0.6
v 0.6 0.8 -0.6
v 0.7 0.8 -0.6
v -0.5 0.8 -0.7
v 0.5 0.8 -0.7
v -0.5 0.8 -0.8
v 0.5 0.8 -0.8
v -0.5 1 0.8
v 0.5 1 0.8
v -0.5 1 0.7
v 0.5 1 0.7
v -0.9 1 0.5
v -0.8 1 0.5
v 0.8 1 0.5
v 0.9 1 0.5
v -0.9 1 -0.6
v -0.8 1 -0.6
v 0.8 1 -0.6
v 0.9 1 -0.6
v -0.5 1 -0.8
v 0.5 1 -0.8
v -0.5 1 -0.9
v 0.5 1 -0.9
v -0.9 1.2 0.9
v 0.9 1.2 0.9
v -1 1.2 0.8
v -0.9 1.2 0.8
v -0.6 1.2 0.8
v -0.4 1.2 0.8
v -0.1 1.2 0.8
v 0.1 1.2 0.8
v 0.5 1.2 0.8
v 0.7 1.2 0.8
v 0.9 1.2 0.8
v 1 1.2 0.8
v -1 1.2 -0.9
v -0.9 1.2 -0.9
v -0.6 1.2 -0.9
v -0.4 1.2 -0.9
v -0.1 1.2 -0.9
v 0.1 1.2 -0.9
v 0.5 1.2 -0.9
v 0.7 1.2 -0.9
v 0.9 1.2 -0.9
v 1 1.2 -0.9
v -0.9 1.2 -1
v 0.9 1.2 -1

# faces
f 3/2/1 2/2/1 1/2/1
f 4/2/1 2/2/1 3/2/1
f 9/1/1 6/1/1 5/1/1
f 10/1/1 8/1/1 7/1/1
f 11/1/1 9/1/1 5/1/1
f 11/1/1 10/1/1 9/1/1
f 12/1/1 8/1/1 10/1/1
f 12/1/1 10/1/1 11/1/1
f 14/1/1 11/1/1 5/1/1
f 15/1/1 11/1/1 14/1/1
f 16/1/1 8/1/1 12/1/1
f 17/1/1 8/1/1 16/1/1
f 19/2/1 14/2/1 13/2/1
f 20/2/1 14/2/1 19/2/1
f 21/2/1 18/2/1 17/2/1
f 22/2/1 18/2/1 21/2/1
f 25/1/1 24/1/1 23/1/1
f 26/1/1 24/1/1 25/1/1
f 31/1/1 28/1/1 27/1/1
f 32/1/1 28/1/1 31/1/1
f 33/1/1 30/1/1 29/1/1
f 34/1/1 30/1/1 33/1/1
f 35/1/1 31/1/1 27/1/1
f 36/1/1 28/1/1 32/1/1
f 37/1/1 33/1/1 29/1/1
f 38/1/1 30/1/1 34/1/1
f 39/1/1 35/1/1 27/1/1
f 39/1/1 36/1/1 35/1/1
f 40/1/1 36/1/1 39/1/1
f 41/1/1 38/1/1 37/1/1
f 41/1/1 30/1/1 38/1/1
f 42/1/1 30/1/1 41/1/1
f 44/1/1 36/1/1 40/1/1
f 45/1/1 41/1/1 37/1/1
f 47/1/1 44/1/1 43/1/1
f 48/1/1 28/1/1 36/1/1
f 48/1/1 44/1/1 47/1/1
f 48/1/1 36/1/1 44/1/1
f 49/1/1 46/1/1 45/1/1
f 49/1/1 37/1/1 29/1/1
f 49/1/1 45/1/1 37/1/1
f 50/1/1 46/1/1 49/1/1
f 53/1/1 52/1/1 51/1/1
f 54/1/1 52/1/1 53/1/1
f 57/1/1 56/1/1 55/1/1
f 58/1/1 56/1/1 57/1/1
f 59/1/2 60/1/2 61/1/2
f 61/1/2 60/1/2 62/1/2
f 63/1/2 64/1/2 65/1/2
f 65/1/2 64/1/2 66/1/2
f 67/1/2 68/1/2 71/1/2
f 71/1/2 68/1/2 72/1/2
f 69/1/2 70/1/2 73/1/2
f 73/1/2 70/1/2 74/1/2
f 67/1/2 71/1/2 75/1/2
f 72/1/2 68/1/2 76/1/2
f 69/1/2 73/1/2 77/1/2
f 74/1/2 70/1/2 78/1/2
f 67/1/2 75/1/2 79/1/2
f 75/1/2 76/1/2 79/1/2
f 79/1/2 76/1/2 80/1/2
f 77/1/2 78/1/2 81/1/2
f 78/1/2 70/1/2 81/1/2
f 81/1/2 70/1/2 82/1/2
f 80/1/2 76/1/2 84/1/2
f 77/1/2 81/1/2 85/1/2
f 83/1/2 84/1/2 87/1/2
f 76/1/2 68/1/2 88/1/2
f 87/1/2 84/1/2 88/1/2
f 84/1/2 76/1/2 88/1/2
f 85/1/2 86/1/2 89/1/2
f 69/1/2 77/1/2 89/1/2
f 77/1/2 85/1/2 89/1/2
f 89/1/2 86/1/2 90/1/2
f 91/1/2 92/1/2 93/1/2
f 93/1/2 92/1/2 94/1/2
f 95/1/2 96/1/2 99/1/2
f 97/1/2 98/1/2 100/1/2
f 95/1/2 99/1/2 101/1/2
f 99/1/2 100/1/2 101/1/2
f 100/1/2 98/1/2 102/1/2
f 101/1/2 100/1/2 102/1/2
f 95/1/2 101/1/2 104/1/2
f 104/1/2 101/1/2 105/1/2
f 102/1/2 98/1/2 106/1/2
f 106/1/2 98/1/2 107/1/2
f 103/2/2 104/2/2 109/2/2
f 109/2/2 104/2/2 110/2/2
f 107/2/2 108/2/2 111/2/2
f 111/2/2 108/2/2 112/2/2
f 113/2/2 114/2/2 115/2/2
f 115/2/2 114/2/2 116/2/2
f 119/2/3 118/2/3 117/2/3
f 120/2/3 118/2/3 119/2/3
f 124/2/3 122/2/3 121/2/3
f 125/2/3 122/2/3 124/2/3
f 126/1/3 124/1/3 123/1/3
f 127/1/3 124/1/3 126/1/3
f 128/1/3 124/1/3 127/1/3
f 129/1/3 124/1/3 128/1/3
f 131/1/3 128/1/3 127/1/3
f 132/1/3 128/1/3 131/1/3
f 134/1/3 131/1/3 130/1/3
f 134/1/3 133/1/3 132/1/3
f 134/1/3 132/1/3 131/1/3
f 135/1/3 133/1/3 134/1/3
f 137/2/3 136/2/3 135/2/3
f 138/2/3 136/2/3 137/2/3
f 141/1/3 140/1/3 139/1/3
f 142/1/3 140/1/3 141/1/3
f 147/1/3 144/1/3 143/1/3
f 148/1/3 146/1/3 145/1/3
f 149/1/3 147/1/3 143/1/3
f 149/1/3 148/1/3 147/1/3
f 150/1/3 148/1/3 149/1/3
f 151/1/3 149/1/3 143/1/3
f 152/1/3 148/1/3 150/1/3
f 153/1/3 146/1/3 148/1/3
f 153/1/3 148/1/3 152/1/3
f 154/1/3 152/1/3 151/1/3
f 154/1/3 151/1/3 143/1/3
f 154/1/3 153/1/3 152/1/3
f 155/1/3 153/1/3 154/1/3
f 158/1/3 157/1/3 156/1/3
f 159/1/3 157/1/3 158/1/3
f 160/1/3 158/1/3 156/1/3
f 161/1/3 157/1/3 159/1/3
f 162/1/3 157/1/3 161/1/3
f 163/1/3 161/1/3 160/1/3
f 163/1/3 162/1/3 161/1/3
f 164/1/3 162/1/3 163/1/3
f 165/1/3 160/1/3 156/1/3
f 165/1/3 163/1/3 160/1/3
f 166/1/3 163/1/3 165/1/3
f 167/1/3 162/1/3 164/1/3
f 168/1/3 162/1/3 167/1/3
f 171/1/3 170/1/3 169/1/3
f 172/1/3 170/1/3 171/1/3
f 175/1/3 174/1/3 173/1/3
f 176/1/3 174/1/3 175/1/3
f 177/1/4 178/1/4 179/1/4
f 179/1/4 178/1/4 180/1/4
f 181/1/4 182/1/4 183/1/4
f 183/1/4 182/1/4 184/1/4
f 185/1/4 186/1/4 189/1/4
f 187/1/4 188/1/4 190/1/4
f 185/1/4 189/1/4 191/1/4
f 189/1/4 190/1/4 191/1/4
f 191/1/4 190/1/4 192/1/4
f 185/1/4 191/1/4 193/1/4
f 192/1/4 190/1/4 194/1/4
f 190/1/4 188/1/4 195/1/4
f 194/1/4 190/1/4 195/1/4
f 193/1/4 194/1/4 196/1/4
f 185/1/4 193/1/4 196/1/4
f 194/1/4 195/1/4 196/1/4
f 196/1/4 195/1/4 197/1/4
f 198/1/4 199/1/4 200/1/4
f 200/1/4 199/1/4 201/1/4
f 198/1/4 200/1/4 202/1/4
f 201/1/4 199/1/4 203/1/4
f 203/1/4 199/1/4 204/1/4
f 202/1/4 203/1/4 205/1/4
f 203/1/4 204/1/4 205/1/4
f 205/1/4 204/1/4 206/1/4
f 198/1/4 202/1/4 207/1/4
f 202/1/4 205/1/4 207/1/4
f 207/1/4 205/1/4 208/1/4
f 206/1/4 204/1/4 209/1/4
f 209/1/4 204/1/4 210/1/4
f 211/1/4 212/1/4 213/1/4
f 213/1/4 212/1/4 214/1/4
f 215/2/4 216/2/4 218/2/4
f 218/2/4 216/2/4 219/2/4
f 217/1/4 218/1/4 220/1/4
f 220/1/4 218/1/4 221/1/4
f 221/1/4 218/1/4 222/1/4
f 222/1/4 218/1/4 223/1/4
f 221/1/4 222/1/4 225/1/4
f 225/1/4 222/1/4 226/1/4
f 224/1/4 225/1/4 228/1/4
f 226/1/4 227/1/4 228/1/4
f 225/1/4 226/1/4 228/1/4
f 228/1/4 227/1/4 229/1/4
f 229/2/4 230/2/4 231/2/4
f 231/2/4 230/2/4 232/2/4
f 233/2/4 234/2/4 235/2/4
f 235/2/4 234/2/4 236/2/4
f 241/1/5 238/1/5 237/1/5
f 242/1/5 238/1/5 241/1/5
f 243/1/5 240/1/5 239/1/5
f 244/1/5 240/1/5 243/1/5
f 249/1/5 246/1/5 245/1/5
f 250/1/5 246/1/5 249/1/5
f 251/1/5 248/1/5 247/1/5
f 252/1/5 248/1/5 251/1/5
f 255/1/5 254/1/5 253/1/5
f 256/1/5 254/1/5 255/1/5
f 261/1/5 258/1/5 257/1/5
f 262/1/5 258/1/5 261/1/5
f 263/1/5 260/1/5 259/1/5
f 264/1/5 260/1/5 263/1/5
f 267/1/5 266/1/5 265/1/5
f 268/1/5 266/1/5 267/1/5
f 271/1/5 270/1/5 269/1/5
f 272/1/5 270/1/5 271/1/5
f 277/1/5 274/1/5 273/1/5
f 278/1/5 274/1/5 277/1/5
f 279/1/5 276/1/5 275/1/5
f 280/1/5 276/1/5 279/1/5
f 283/1/5 282/1/5 281/1/5
f 284/1/5 282/1/5 283/1/5
f 288/2/5 286/2/5 285/2/5
f 289/2/5 286/2/5 288/2/5
f 290/2/5 286/2/5 289/2/5
f 291/2/5 286/2/5 290/2/5
f 292/2/5 286/2/5 291/2/5
f 293/2/5 286/2/5 292/2/5
f 294/2/5 286/2/5 293/2/5
f 296/2/5 288/2/5 287/2/5
f 298/2/5 290/2/5 289/2/5
f 299/3/5 293/3/5 292/3/5
f 301/2/5 295/2/5 294/2/5
f 302/3/5 297/3/5 296/3/5
f 302/2/5 296/2/5 287/2/5
f 303/2/5 298/2/5 297/2/5
f 303/3/5 297/3/5 302/3/5
f 304/2/5 290/2/5 298/2/5
f 304/2/5 298/2/5 303/2/5
f 305/2/5 300/2/5 299/2/5
f 305/3/5 299/3/5 292/3/5
f 306/3/5 301/3/5 300/3/5
f 306/2/5 300/2/5 305/2/5
f 307/2/5 295/2/5 301/2/5
f 307/3/5 301/3/5 306/3/5
f 308/2/5 302/2/5 287/2/5
f 309/2/5 302/2/5 308/2/5
f 310/2/5 290/2/5 304/2/5
f 311/3/5 291/3/5 290/3/5
f 311/2/5 290/2/5 310/2/5
f 312/2/5 292/2/5 291/2/5
f 312/3/5 291/3/5 311/3/5
f 313/3/5 305/3/5 292/3/5
f 313/2/5 292/2/5 312/2/5
f 314/3/5 305/3/5 313/3/5
f 315/2/5 295/2/5 307/2/5
f 316/2/5 295/2/5 315/2/5
f 317/2/5 314/2/5 313/2/5
f 317/2/5 315/2/5 314/2/5
f 317/2/5 312/2/5 311/2/5
f 317/2/5 313/2/5 312/2/5
f 317/2/5 310/2/5 309/2/5
f 317/2/5 311/2/5 310/2/5
f 318/2/5 315/2/5 317/2/5
f 319/1/6 320/1/6 321/1/6
f 321/1/6 320/1/6 322/1/6
f 323/1/6 324/1/6 327/1/6
f 327/1/6 324/1/6 328/1/6
f 325/1/6 326/1/6 329/1/6
f 329/1/6 326/1/6 330/1/6
f 331/1/6 332/1/6 333/1/6
f 333/1/6 332/1/6 334/1/6
f 335/1/6 336/1/6 337/1/6
f 337/1/6 336/1/6 338/1/6
f 339/1/6 340/1/6 343/1/6
f 343/1/6 340/1/6 344/1/6
f 341/1/6 342/1/6 345/1/6
f 345/1/6 342/1/6 346/1/6
f 347/1/6 348/1/6 349/1/6
f 349/1/6 348/1/6 350/1/6
f 351/2/6 352/2/6 354/2/6
f 354/2/6 352/2/6 355/2/6
f 355/2/6 352/2/6 356/2/6
f 356/2/6 352/2/6 357/2/6
f 357/2/6 352/2/6 358/2/6
f 358/2/6 352/2/6 359/2/6
f 359/2/6 352/2/6 360/2/6
f 360/2/6 352/2/6 361/2/6
f 353/2/6 354/2/6 363/2/6
f 354/3/6 355/3/6 364/3/6
f 363/2/6 354/2/6 364/2/6
f 355/2/6 356/2/6 365/2/6
f 364/3/6 355/3/6 365/3/6
f 356/3/6 357/3/6 366/3/6
f 365/2/6 356/2/6 366/2/6
f 357/2/6 358/2/6 367/2/6
f 366/3/6 357/3/6 367/3/6
f 358/3/6 359/3/6 368/3/6
f 367/2/6 358/2/6 368/2/6
f 359/2/6 360/2/6 369/2/6
f 368/3/6 359/3/6 369/3/6
f 360/3/6 361/3/6 370/3/6
f 369/2/6 360/2/6 370/2/6
f 361/2/6 362/2/6 371/2/6
f 370/3/6 361/3/6 371/3/6
f 371/2/6 362/2/6 372/2/6
f 369/2/6 370/2/6 373/2/6
f 370/2/6 371/2/6 373/2/6
f 368/2/6 369/2/6 373/2/6
f 367/2/6 368/2/6 373/2/6
f 366/2/6 367/2/6 373/2/6
f 365/2/6 366/2/6 373/2/6
f 364/2/6 365/2/6 373/2/6
f 373/2/6 371/2/6 374/2/6
